<svg width="80" height="80" viewBox="0 0 80 80" fill="none" xmlns="http://www.w3.org/2000/svg">
<rect width="80" height="80" rx="10" fill="#454545"/>
<g clip-path="url(#clip0_7001_1629)">
<path d="M21.8348 51.8348C21.8348 61.8672 29.9676 70 40 70C50.0324 70 58.1652 61.8672 58.1652 51.8348C58.1652 41.8025 50.0324 33.6697 40 33.6697C29.9676 33.6697 21.8348 41.8025 21.8348 51.8348ZM38.2425 43.221V40.9356H41.7578V43.2288C44.2322 43.6364 46.126 45.7894 46.126 48.3775H42.6107C42.6107 47.4379 41.8464 46.6735 40.9067 46.6735H39.0499C38.1116 46.6735 37.348 47.4371 37.348 48.3754C37.348 49.3139 38.1116 50.0773 39.0499 50.0773H40.9502C43.827 50.0773 46.1674 52.4177 46.1674 55.2944C46.1674 57.8965 44.2524 60.0596 41.7577 60.4489V62.7343H38.2423V60.4535C35.7651 60.0791 33.8601 57.9358 33.8601 55.3557H37.3755C37.3755 56.2603 38.1115 56.9963 39.0161 56.9963H40.9502C41.8885 56.9963 42.6521 56.2327 42.6521 55.2944C42.6521 54.356 41.8885 53.5925 40.9502 53.5925H39.0499C36.1731 53.5925 33.8327 51.2521 33.8327 48.3753C33.8327 45.7734 35.7478 43.6104 38.2425 43.221ZM43.5372 30.4424C45.222 30.7185 46.8678 31.1942 48.44 31.8596C50.5019 32.7303 52.4156 33.9167 54.1125 35.3761V22.0062H57.6424V18.8175L48.8248 10L40.0073 18.8176V22.0063H43.5372V30.4424ZM25.8874 35.3761C27.5843 33.9167 29.498 32.7303 31.5598 31.8596C33.132 31.1942 34.7779 30.7184 36.4627 30.4424V27.6301H39.9926V24.4414L31.175 15.6238L22.3574 24.4414V27.6301H25.8874V35.3761Z" fill="white"/>
</g>
<defs>
<clipPath id="clip0_7001_1629">
<rect width="60" height="60" fill="white" transform="translate(10 10)"/>
</clipPath>
</defs>
</svg>
