<svg width="80" height="80" viewBox="0 0 80 80" fill="none" xmlns="http://www.w3.org/2000/svg">
<rect width="80" height="80" rx="10" fill="#454545"/>
<path d="M66.0812 39.25L61.9375 29.875C61.7924 29.5425 61.554 29.2593 61.2511 29.0596C60.9483 28.8599 60.594 28.7524 60.2313 28.75H50.2L50.8 23.3313C50.8295 23.0682 50.803 22.8019 50.7222 22.5498C50.6414 22.2977 50.5082 22.0656 50.3312 21.8687C50.1559 21.6745 49.9419 21.5191 49.703 21.4126C49.464 21.306 49.2054 21.2506 48.9437 21.25H23.125C22.6277 21.25 22.1508 21.4475 21.7992 21.7992C21.4475 22.1508 21.25 22.6277 21.25 23.125C21.25 23.6223 21.4475 24.0992 21.7992 24.4508C22.1508 24.8025 22.6277 25 23.125 25H32.5C32.9973 25 33.4742 25.1975 33.8258 25.5492C34.1775 25.9008 34.375 26.3777 34.375 26.875C34.375 27.3723 34.1775 27.8492 33.8258 28.2008C33.4742 28.5525 32.9973 28.75 32.5 28.75H19.375C18.8777 28.75 18.4008 28.9475 18.0492 29.2992C17.6975 29.6508 17.5 30.1277 17.5 30.625C17.5 31.1223 17.6975 31.5992 18.0492 31.9508C18.4008 32.3025 18.8777 32.5 19.375 32.5H38.125C38.6223 32.5 39.0992 32.6975 39.4508 33.0492C39.8025 33.4008 40 33.8777 40 34.375C40 34.8723 39.8025 35.3492 39.4508 35.7008C39.0992 36.0525 38.6223 36.25 38.125 36.25H25C24.5027 36.25 24.0258 36.4475 23.6742 36.7992C23.3225 37.1508 23.125 37.6277 23.125 38.125C23.125 38.6223 23.3225 39.0992 23.6742 39.4508C24.0258 39.8025 24.5027 40 25 40H32.5C32.9973 40 33.4742 40.1975 33.8258 40.5492C34.1775 40.9008 34.375 41.3777 34.375 41.875C34.375 42.3723 34.1775 42.8492 33.8258 43.2008C33.4742 43.5525 32.9973 43.75 32.5 43.75H17.5C17.0027 43.75 16.5258 43.9475 16.1742 44.2992C15.8225 44.6508 15.625 45.1277 15.625 45.625C15.625 46.1223 15.8225 46.5992 16.1742 46.9508C16.5258 47.3025 17.0027 47.5 17.5 47.5H21.25C21.7473 47.5 22.2242 47.6975 22.5758 48.0492C22.9275 48.4008 23.125 48.8777 23.125 49.375C23.125 49.8723 22.9275 50.3492 22.5758 50.7008C22.2242 51.0525 21.7473 51.25 21.25 51.25H19.375C18.8777 51.25 18.4008 51.4475 18.0492 51.7992C17.6975 52.1508 17.5 52.6277 17.5 53.125C17.5 53.6223 17.6975 54.0992 18.0492 54.4508C18.4008 54.8025 18.8777 55 19.375 55H24.7187C24.9212 55.7908 25.3066 56.5229 25.8437 57.1375C26.299 57.6465 26.8568 58.0533 27.4805 58.3312C28.1042 58.6091 28.7797 58.7518 29.4625 58.75C30.618 58.717 31.738 58.3435 32.6819 57.6763C33.6259 57.0092 34.3519 56.0782 34.7687 55H49.0938C49.2962 55.7908 49.6816 56.5229 50.2188 57.1375C50.674 57.6465 51.2318 58.0533 51.8555 58.3312C52.4792 58.6091 53.1547 58.7518 53.8375 58.75C54.993 58.717 56.1129 58.3435 57.0569 57.6763C58.0009 57.0092 58.7269 56.0782 59.1437 55H62.8937C63.3573 55.0028 63.8054 54.8338 64.1517 54.5257C64.4979 54.2175 64.7178 53.792 64.7687 53.3312L66.2125 40.2062C66.2639 39.8815 66.2182 39.5489 66.0812 39.25ZM29.4625 55C29.307 55.0067 29.152 54.9782 29.0092 54.9165C28.8663 54.8548 28.7392 54.7615 28.6375 54.6437C28.4903 54.4617 28.3826 54.2509 28.3213 54.025C28.26 53.799 28.2463 53.5628 28.2812 53.3312C28.3291 52.8048 28.5564 52.3108 28.9251 51.9319C29.2937 51.553 29.7813 51.3123 30.3062 51.25C30.4617 51.2433 30.6167 51.2718 30.7596 51.3335C30.9025 51.3952 31.0295 51.4885 31.1312 51.6062C31.2784 51.7883 31.3861 51.9991 31.4474 52.225C31.5088 52.451 31.5224 52.6872 31.4875 52.9187C31.4396 53.4452 31.2123 53.9392 30.8437 54.3181C30.475 54.697 29.9874 54.9377 29.4625 55ZM53.8375 55C53.682 55.0067 53.527 54.9782 53.3842 54.9165C53.2413 54.8548 53.1142 54.7615 53.0125 54.6437C52.8653 54.4617 52.7576 54.2509 52.6963 54.025C52.635 53.799 52.6213 53.5628 52.6562 53.3312C52.7041 52.8048 52.9314 52.3108 53.3001 51.9319C53.6687 51.553 54.1563 51.3123 54.6812 51.25C54.8367 51.2433 54.9917 51.2718 55.1346 51.3335C55.2775 51.3952 55.4045 51.4885 55.5062 51.6062C55.6534 51.7883 55.7611 51.9991 55.8224 52.225C55.8838 52.451 55.8974 52.6872 55.8625 52.9187C55.8146 53.4452 55.5873 53.9392 55.2187 54.3181C54.85 54.697 54.3624 54.9377 53.8375 55ZM62.275 41.875H53.9875C53.7259 41.8744 53.4672 41.819 53.2283 41.7124C52.9893 41.6059 52.7753 41.4505 52.6 41.2562C52.4231 41.0594 52.2898 40.8273 52.209 40.5752C52.1282 40.3231 52.1017 40.0568 52.1312 39.7937L52.75 34.1687C52.8053 33.7114 53.027 33.2904 53.3728 32.9861C53.7186 32.6818 54.1643 32.5154 54.625 32.5187H58.9937L62.5 40.3L62.275 41.875Z" fill="white"/>
<path d="M17.5 40C17.9973 40 18.4742 39.8025 18.8258 39.4508C19.1775 39.0992 19.375 38.6223 19.375 38.125C19.375 37.6277 19.1775 37.1508 18.8258 36.7992C18.4742 36.4475 17.9973 36.25 17.5 36.25H15.625C15.1277 36.25 14.6508 36.4475 14.2992 36.7992C13.9475 37.1508 13.75 37.6277 13.75 38.125C13.75 38.6223 13.9475 39.0992 14.2992 39.4508C14.6508 39.8025 15.1277 40 15.625 40H17.5Z" fill="white"/>
</svg>
